<svg id="Layer_1" data-name="Layer 1" xmlns="http://www.w3.org/2000/svg" viewBox="0 0 284.58 285.32"><path d="M105.26,231.09c0-6.17-.22-12.34.07-18.5.18-3.78-1-5.82-4.5-7.71A78.25,78.25,0,0,1,61.9,114.54C70.45,83.4,100,58.87,132.55,56c33.3-3,60.56,8.48,79.51,36.07,25.71,37.44,14.05,87.67-25.22,111.06-5.69,3.39-7.59,6.79-7.35,13.17a321.88,321.88,0,0,1-.35,36c-1.54,20.32-18.47,34-39.68,33-19.23-.88-34.15-16.88-34.2-36.68C105.24,242.76,105.26,236.92,105.26,231.09Zm49.22-75.76c-.68-.79-1.08-1.31-1.53-1.77-12.46-12.48-10.53-30.84,4.4-40,8.93-5.5,18-10.7,27.15-15.9,4.65-2.66,7.71-1,8.16,4.38s.71,10.64,1.05,16c.23,3.66.18,7.36.73,11,2.76,18.35-10.42,34.2-31.59,30.62-3.75,7.26-7,15-11.5,21.91-7,10.69-3.36,22.13-4.42,33.38h22.46a5.71,5.71,0,0,0,.45-1.14,7.43,7.43,0,0,0,.09-2c-1.28-7.39,2.26-11.11,8.72-14.59,29-15.61,43.45-47.76,35.66-78-12.76-49.44-74.06-71-115.7-40.79-42,30.55-40.11,91.35,4.18,116.71,8.23,4.72,13.89,9,12,19.15,0,.1.18.25.4.53h23.62c-1.53-5.2-2.57-9.75-4.23-14-1.31-3.39-3.56-6.41-5.07-9.73-1.23-2.7-2.68-3.31-5.76-2.9-16.4,2.17-29.15-9.2-28.8-25.78.22-10.32,1.17-20.62,1.83-30.92.41-6.51,3.46-8.09,9.27-4.74,8.36,4.82,16.73,9.65,25,14.62,15.56,9.34,18.19,26,6.56,39.92-.89,1.06-.59,3.13-.84,4.73l1.64.28ZM114.61,249.5c.23,10.3,4.67,17.75,13.09,22.45,10.68,5.95,21.45,5.52,31.54-1.59,7-5,10.77-11.78,10.51-20.86Zm.21-9.7h54.83V224.71H114.82ZM159.34,146c5.4-10.49,10.76-20.87,16.11-31.24a71.09,71.09,0,0,0-14.5,7.55A14.82,14.82,0,0,0,159.34,146ZM123,178.82l-16.77-31.07A60.88,60.88,0,0,0,104.35,163C104.32,173.5,111.45,179.78,123,178.82ZM115.61,143l-1,.72c5.43,10.09,10.86,20.18,16.41,30.51,6.67-8.5,5.29-18.42-3-23.89C124,147.67,119.77,145.41,115.61,143Zm69.65-22.79-1.84-.42-15.86,30.65c9.7,1,17.23-5.3,17.65-14.41C185.46,130.74,185.26,125.45,185.26,120.18Z"/><path d="M71.27,73.29a35.75,35.75,0,0,1-4.49-3c-8-7.52-15.93-15.11-23.91-22.66-2.31-2.19-3.59-4.69-1.18-7.37s5-1.74,7.37.49c8.19,7.8,16.49,15.5,24.51,23.47a7.42,7.42,0,0,1,1.63,5.65C75,71.12,72.75,72.07,71.27,73.29Z"/><path d="M244.63,43.36a27.94,27.94,0,0,1-3,4.24c-8,7.71-16.09,15.32-24.14,23-2.31,2.2-4.92,3.28-7.39.71s-1.47-5.08.92-7.34c8.21-7.72,16.27-15.62,24.65-23.16,1.39-1.25,4.14-1.54,6.16-1.32C242.84,39.57,243.61,41.85,244.63,43.36Z"/><path d="M22.87,141.35c-5.64,0-11.29,0-16.94,0-3.22,0-5.86-.93-5.93-4.47s2.35-4.81,5.66-4.8q17.43,0,34.87,0c3.09,0,5.26,1.24,5.37,4.53.11,3.71-2.36,4.73-5.6,4.72C34.49,141.34,28.68,141.35,22.87,141.35Z"/><path d="M261.58,141.35H244.14c-3,0-5.38-.9-5.45-4.34-.08-3.59,2.16-4.91,5.48-4.9H279c3.33,0,5.66,1.46,5.53,4.92-.12,3.21-2.48,4.37-5.56,4.34C273.2,141.31,267.39,141.35,261.58,141.35Z"/><path d="M147,22.51c0,5.31,0,10.63,0,15.94,0,3.25-1.19,5.73-4.76,5.68s-4.61-2.63-4.61-5.84q0-16.18,0-32.37c0-3.12.82-5.83,4.51-5.92,4-.09,4.85,2.75,4.85,6.07Z"/></svg>